<svg width="42" height="42" viewBox="0 0 42 42" fill="none" xmlns="http://www.w3.org/2000/svg">
<path d="M0 6C0 2.68629 2.68629 0 6 0H36C39.3137 0 42 2.68629 42 6V36C42 39.3137 39.3137 42 36 42H6C2.68629 42 0 39.3137 0 36V6Z" fill="url(#paint0_linear_2313_4264)"/>
<path d="M21.6995 24.9634C21.6995 22.5382 23.6741 20.5677 26.0952 20.5677C26.6646 20.5677 27.2053 20.6783 27.7092 20.8791V10.5557C27.7092 10.2198 27.4348 9.94531 27.0989 9.94531H13.4981C13.1621 9.94531 12.8877 10.2198 12.8877 10.5557V27.2535C12.8877 27.5894 13.1621 27.8638 13.4981 27.8638H22.8056C22.1173 27.0937 21.6995 26.0818 21.6995 24.9634Z" fill="white"/>
<path d="M25.2549 16.4145C24.8739 16.4145 24.5625 16.1073 24.5625 15.7222C24.5625 15.3412 24.8698 15.0298 25.2549 15.0298H26.32V13.8009H24.0177C23.6367 13.8009 23.3254 13.4936 23.3254 13.1085C23.3254 12.7276 23.6326 12.4162 24.0177 12.4162H26.32V12.0107C26.32 11.6297 26.0127 11.3184 25.6277 11.3184H14.956C14.575 11.3184 14.2637 11.6256 14.2637 12.0107V25.7917C14.2637 26.1727 14.5709 26.484 14.956 26.484H21.9735C21.7973 26.0088 21.6949 25.4967 21.6949 24.9601C21.6949 22.5349 23.6695 20.5644 26.0906 20.5644C26.1684 20.5644 26.2463 20.5685 26.32 20.5726V16.4104H25.2549V16.4145Z" fill="#FFC10D"/>
<path d="M18.919 15.05C19.3369 15.05 19.6769 14.7141 19.6769 14.2921C19.6769 13.8701 19.3328 13.5342 18.919 13.5342C18.5052 13.5342 18.1611 13.8783 18.1611 14.2921C18.1611 14.7059 18.5053 15.05 18.919 15.05Z" fill="white"/>
<path d="M21.3199 19.4702C21.3199 19.2694 21.2134 19.0851 21.0413 18.9908C20.7996 18.8597 20.5456 18.7491 20.2834 18.6631L19.3822 19.6831C19.1159 19.9781 18.6079 19.9781 18.3498 19.6831L17.4486 18.6631C17.1823 18.7532 16.9283 18.8597 16.6907 18.9908C16.5186 19.0851 16.4121 19.2694 16.4121 19.4702V20.6704H21.3321V19.4702H21.3199Z" fill="white"/>
<path d="M25.2129 29.2695V31.2851L25.6594 30.9164C25.9134 30.7116 26.278 30.7116 26.532 30.9164L26.9785 31.2851V29.2695C26.6958 29.3269 26.3968 29.3596 26.0977 29.3596C25.7905 29.3638 25.4956 29.3269 25.2129 29.2695Z" fill="#56ACE0"/>
<path d="M26.093 21.9531C24.4339 21.9531 23.082 23.305 23.082 24.9641C23.082 26.6233 24.4339 27.9751 26.093 27.9751C27.7522 27.9751 29.104 26.6233 29.104 24.9641C29.1123 23.305 27.7603 21.9531 26.093 21.9531Z" fill="#56ACE0"/>
<path d="M18.9167 16.4303C20.0965 16.4303 21.0551 15.4717 21.0551 14.2919C21.0551 13.1121 20.0965 12.1494 18.9167 12.1494C17.7369 12.1494 16.7783 13.108 16.7783 14.2878C16.7783 15.4676 17.7369 16.4303 18.9167 16.4303ZM18.9167 13.5299C19.3346 13.5299 19.6746 13.874 19.6746 14.2878C19.6746 14.7016 19.3305 15.0457 18.9167 15.0457C18.5029 15.0457 18.1588 14.7098 18.1588 14.2878C18.1589 13.8658 18.503 13.5299 18.9167 13.5299Z" fill="#194F82"/>
<path d="M21.6979 17.7739C21.2308 17.5199 20.727 17.3274 20.1985 17.2045C19.9486 17.1471 19.6946 17.2291 19.5225 17.4216L18.8507 18.1795L18.1788 17.4216C18.0108 17.2291 17.7528 17.1471 17.5029 17.2045C16.9744 17.3274 16.4705 17.5199 16.0035 17.7739C15.3849 18.1099 15.0039 18.7571 15.0039 19.4699V21.3585C15.0039 21.7395 15.3111 22.0508 15.6962 22.0508H21.9968C22.3778 22.0508 22.6891 21.7436 22.6891 21.3585V19.4699C22.6975 18.7612 22.3165 18.1099 21.6979 17.7739ZM21.3087 20.6702H16.3969V19.4699C16.3969 19.2692 16.5034 19.0849 16.6755 18.9906C16.9172 18.8595 17.1711 18.7489 17.4334 18.6629L18.3346 19.6829C18.6009 19.9779 19.1089 19.9779 19.367 19.6829L20.2682 18.6629C20.5345 18.753 20.7885 18.8595 21.0261 18.9906C21.1981 19.0849 21.3047 19.2692 21.3047 19.4699V20.6702H21.3087Z" fill="#194F82"/>
<path d="M20.292 24.1357H15.9823C15.6014 24.1357 15.29 24.443 15.29 24.8281C15.29 25.209 15.5973 25.5204 15.9823 25.5204H20.292C20.673 25.5204 20.9843 25.2131 20.9843 24.8281C20.9843 24.443 20.673 24.1357 20.292 24.1357Z" fill="#194F82"/>
<path d="M29.0889 21.7557V10.5597C29.0889 9.45773 28.1917 8.56055 27.0979 8.56055H13.4972C12.3952 8.56055 11.498 9.45773 11.498 10.5597V27.2575C11.498 28.3594 12.3952 29.2566 13.4972 29.2566H23.8288V32.7469C23.8288 33.3286 24.5048 33.6523 24.9554 33.2795L26.0983 32.3495L27.2412 33.2795C27.6919 33.6481 28.3678 33.3286 28.3678 32.7469V28.7281C29.6419 27.9579 30.498 26.5651 30.498 24.9675C30.4899 23.7016 29.9491 22.5587 29.0889 21.7557ZM22.7965 27.8679H13.4972C13.1531 27.8679 12.8786 27.5934 12.8786 27.2575V10.5597C12.8786 10.2237 13.153 9.94929 13.4889 9.94929H27.0856C27.4215 9.94929 27.696 10.2237 27.696 10.5597V20.8831C27.1962 20.6824 26.6513 20.5718 26.0819 20.5718C23.6567 20.5718 21.6862 22.5464 21.6862 24.9675C21.6904 26.0776 22.1124 27.0936 22.7965 27.8679ZM26.9832 31.2845H26.9791L26.5326 30.9158C26.2786 30.711 25.914 30.711 25.66 30.9158L25.2135 31.2845V29.2689C25.4962 29.3263 25.7952 29.359 26.0984 29.359C26.4015 29.359 26.6965 29.3303 26.9791 29.2689V31.2845H26.9832ZM26.0901 27.9744C24.431 27.9744 23.0791 26.6226 23.0791 24.9634C23.0791 23.3043 24.431 21.9524 26.0901 21.9524C27.7493 21.9524 29.1011 23.3043 29.1011 24.9634C29.1094 26.6225 27.7574 27.9744 26.0901 27.9744Z" fill="#194F82"/>
<defs>
<linearGradient id="paint0_linear_2313_4264" x1="0" y1="21" x2="42" y2="21" gradientUnits="userSpaceOnUse">
<stop stop-color="#0B1631"/>
<stop offset="1" stop-color="#132553"/>
</linearGradient>
</defs>
</svg>
