<svg width="42" height="42" viewBox="0 0 42 42" fill="none" xmlns="http://www.w3.org/2000/svg">
<path d="M0 6C0 2.68629 2.68629 0 6 0H36C39.3137 0 42 2.68629 42 6V36C42 39.3137 39.3137 42 36 42H6C2.68629 42 0 39.3137 0 36V6Z" fill="url(#paint0_linear_2313_4278)"/>
<path d="M12.9854 21.1043V14.6123H9.30273V25.1447H10.242V33.4996H13.9955V21.1043H12.9854Z" fill="#6E76E5"/>
<path d="M15.0052 21.1043H13.9951V33.4996H17.7486V25.1447H18.688V14.6123H15.0052V21.1043Z" fill="#515BE0"/>
<path d="M15.0065 14.6123H12.9863V21.1043H15.0065V14.6123Z" fill="#00EED1"/>
<path d="M13.9961 14.1055V8.5C12.4506 8.5 11.1934 9.75732 11.1934 11.3027C11.1934 12.8481 12.4507 14.1055 13.9961 14.1055Z" fill="#6E76E5"/>
<path d="M16.7978 11.3027C16.7978 9.75727 15.5405 8.5 13.9951 8.5V14.1055C15.5406 14.1055 16.7978 12.8482 16.7978 11.3027Z" fill="#515BE0"/>
<path d="M29.9192 14.0456V8.5C28.3904 8.5 27.1465 9.74388 27.1465 11.2728C27.1465 12.8017 28.3904 14.0456 29.9192 14.0456Z" fill="#6E76E5"/>
<path d="M27.1465 30.7269C27.1465 32.2558 28.3904 33.4997 29.9192 33.4997V27.9541C28.3904 27.9541 27.1465 29.198 27.1465 30.7269Z" fill="#6E76E5"/>
<path d="M27.1465 24.2425C27.1465 25.7714 28.3904 27.0153 29.9192 27.0153V21.4697C28.3904 21.4697 27.1465 22.7136 27.1465 24.2425Z" fill="#6E76E5"/>
<path d="M29.9199 21.4697V27.0153C31.4488 27.0153 32.6927 25.7714 32.6927 24.2425C32.6927 22.7136 31.4489 21.4697 29.9199 21.4697Z" fill="#515BE0"/>
<path d="M27.1465 17.7582C27.1465 19.2871 28.3904 20.5309 29.9192 20.5309V14.9854C28.3904 14.9854 27.1465 16.2292 27.1465 17.7582Z" fill="#6E76E5"/>
<path d="M29.9199 14.9854V20.5309C31.4488 20.5309 32.6927 19.287 32.6927 17.7582C32.6927 16.2292 31.4489 14.9854 29.9199 14.9854Z" fill="#515BE0"/>
<path d="M32.6927 11.2728C32.6927 9.74388 31.4489 8.5 29.9199 8.5V14.0456C31.4489 14.0456 32.6927 12.8017 32.6927 11.2728Z" fill="#515BE0"/>
<path d="M21.9572 19.9898H20.2031V22.01H21.9572V31.7371H25.7313V29.7169H23.9773V25.2524H25.7313V23.2322H23.9773V18.7677H25.7313V16.7475H23.9773V12.2829H25.7313V10.2627H21.9572V19.9898Z" fill="#00EED1"/>
<path d="M29.9199 27.9541V33.4997C31.4488 33.4997 32.6927 32.2558 32.6927 30.7269C32.6927 29.198 31.4489 27.9541 29.9199 27.9541Z" fill="#515BE0"/>
<defs>
<linearGradient id="paint0_linear_2313_4278" x1="0" y1="21" x2="42" y2="21" gradientUnits="userSpaceOnUse">
<stop stop-color="#0B1631"/>
<stop offset="1" stop-color="#132553"/>
</linearGradient>
</defs>
</svg>
