<svg width="42" height="42" viewBox="0 0 42 42" fill="none" xmlns="http://www.w3.org/2000/svg">
<path d="M0 6C0 2.68629 2.68629 0 6 0H36C39.3137 0 42 2.68629 42 6V36C42 39.3137 39.3137 42 36 42H6C2.68629 42 0 39.3137 0 36V6Z" fill="url(#paint0_linear_2313_4294)"/>
<path d="M21.5 34C28.4036 34 34 28.4036 34 21.5C34 14.5964 28.4036 9 21.5 9C14.5964 9 9 14.5964 9 21.5C9 28.4036 14.5964 34 21.5 34Z" fill="#FF314F"/>
<path d="M24.1849 33.7101C28.7516 32.7099 32.3835 29.2135 33.5785 24.7229L26.3684 17.4936L25.6805 18.7406L19.5538 12.5137L18.2828 18.4809L18.351 18.5491L17.3192 19.1264L17.1573 18.9646L16.2822 19.2469L20.2265 23.1912L16.0195 25.5448L24.1849 33.7101Z" fill="#A30F44"/>
<path d="M17.4406 26.053C18.672 26.053 19.6702 25.0548 19.6702 23.8234C19.6702 22.592 18.672 21.5938 17.4406 21.5938C16.2092 21.5938 15.2109 22.592 15.2109 23.8234C15.2109 25.0548 16.2092 26.053 17.4406 26.053Z" fill="#3F3D3D"/>
<path d="M25.6085 26.053C26.8399 26.053 27.8382 25.0548 27.8382 23.8234C27.8382 22.592 26.8399 21.5938 25.6085 21.5938C24.3771 21.5938 23.3789 22.592 23.3789 23.8234C23.3789 25.0548 24.3771 26.053 25.6085 26.053Z" fill="#272525"/>
<path d="M21.6494 28.2054H21.3504C19.2951 28.2054 17.6289 26.5392 17.6289 24.4839V21.2274C17.6289 19.172 19.2952 17.5059 21.3504 17.5059H21.6494C23.7047 17.5059 25.3709 19.1721 25.3709 21.2274V24.4839C25.371 26.5392 23.7048 28.2054 21.6494 28.2054Z" fill="#FFEDB5"/>
<path d="M21.6471 17.5059H21.4688V28.2055H21.6472C23.7026 28.2055 25.3687 26.5394 25.3687 24.484V21.2275C25.3687 19.1721 23.7025 17.5059 21.6471 17.5059Z" fill="#FEE187"/>
<path d="M21.4973 26.3558C21.1456 26.3558 20.8594 26.0696 20.8594 25.7179C20.8594 25.6219 20.9373 25.5439 21.0333 25.5439C21.1295 25.5439 21.2073 25.6218 21.2073 25.7179C21.2073 25.8778 21.3374 26.0078 21.4972 26.0078C21.6571 26.0078 21.7871 25.8778 21.7871 25.7179C21.7871 25.6219 21.865 25.5439 21.9611 25.5439C22.0572 25.5439 22.1351 25.6218 22.1351 25.7179C22.1352 26.0696 21.849 26.3558 21.4973 26.3558Z" fill="#C92F00"/>
<path d="M21.9616 25.5439C21.8655 25.5439 21.7876 25.6218 21.7876 25.7179C21.7876 25.8778 21.6576 26.0078 21.4977 26.0078C21.4878 26.0078 21.4784 26.0059 21.4688 26.0049V26.3543C21.4784 26.3547 21.4879 26.3557 21.4977 26.3557C21.8494 26.3557 22.1356 26.0695 22.1356 25.7178C22.1355 25.6219 22.0576 25.5439 21.9616 25.5439Z" fill="#930000"/>
<path d="M27.4999 20.2917C27.3139 16.4311 23.5721 16.0324 22.2315 16.0324C17.2756 15.7871 16.4092 19.7429 16.4548 21.0615C16.4952 22.2286 17.3071 22.3188 17.3071 22.3188C18.5698 22.3802 19.0439 20.6829 19.9554 19.8043C20.6446 20.8671 23.8652 22.6496 25.0726 22.6496C26.4131 22.6497 27.5626 21.5925 27.4999 20.2917Z" fill="#3F3D3D"/>
<path d="M27.4976 20.2913C27.3116 16.4307 23.5698 16.032 22.2292 16.032C21.9639 16.0189 21.7111 16.0184 21.4688 16.0284V21.1137C22.6996 21.9184 24.2972 22.6493 25.0703 22.6493C26.4108 22.6493 27.5603 21.5921 27.4976 20.2913Z" fill="#272525"/>
<path d="M20.0739 22.3806L20.2759 22.7899C20.3039 22.8466 20.3581 22.886 20.4207 22.8951L20.8723 22.9608C21.0301 22.9837 21.093 23.1776 20.9789 23.2887L20.652 23.6073C20.6067 23.6515 20.586 23.7151 20.5967 23.7776L20.6739 24.2274C20.7008 24.3845 20.5359 24.5043 20.3948 24.4301L19.9909 24.2177C19.9349 24.1883 19.8679 24.1883 19.8119 24.2177L19.408 24.4301C19.2669 24.5043 19.102 24.3845 19.1289 24.2274L19.2061 23.7776C19.2168 23.7152 19.1961 23.6515 19.1508 23.6073L18.8239 23.2887C18.7098 23.1775 18.7728 22.9837 18.9305 22.9608L19.3821 22.8951C19.4448 22.886 19.4989 22.8467 19.5269 22.7899L19.7289 22.3806C19.7996 22.2377 20.0034 22.2377 20.0739 22.3806Z" fill="#E09112"/>
<path d="M23.2731 22.3806L23.4751 22.7899C23.5031 22.8466 23.5573 22.886 23.6199 22.8951L24.0715 22.9608C24.2293 22.9837 24.2922 23.1776 24.1781 23.2887L23.8512 23.6073C23.806 23.6515 23.7852 23.7151 23.7959 23.7776L23.8731 24.2274C23.9 24.3845 23.7352 24.5043 23.594 24.4301L23.1901 24.2177C23.1341 24.1883 23.0671 24.1883 23.0111 24.2177L22.6072 24.4301C22.4661 24.5043 22.3012 24.3845 22.3281 24.2274L22.4053 23.7776C22.416 23.7152 22.3953 23.6515 22.35 23.6073L22.0231 23.2887C21.909 23.1775 21.972 22.9837 22.1297 22.9608L22.5813 22.8951C22.644 22.886 22.6981 22.8467 22.7261 22.7899L22.9281 22.3806C22.9988 22.2377 23.2025 22.2377 23.2731 22.3806Z" fill="#E09112"/>
<path d="M19.9 23.8253C20.1295 23.8253 20.3155 23.6392 20.3155 23.4097C20.3155 23.1802 20.1295 22.9941 19.9 22.9941C19.6704 22.9941 19.4844 23.1802 19.4844 23.4097C19.4844 23.6392 19.6704 23.8253 19.9 23.8253Z" fill="#272525"/>
<path d="M23.0992 23.8253C23.3287 23.8253 23.5147 23.6392 23.5147 23.4097C23.5147 23.1802 23.3287 22.9941 23.0992 22.9941C22.8697 22.9941 22.6836 23.1802 22.6836 23.4097C22.6836 23.6392 22.8697 23.8253 23.0992 23.8253Z" fill="#272525"/>
<path d="M15.5234 14.3904L19.1739 12.485C19.3705 12.3824 19.5875 12.4534 19.6053 12.6269C19.7587 14.1264 20.4963 15.4376 21.7143 16.3618L17.2514 18.6912C17.1896 17.1636 16.5356 15.8087 15.3931 14.8254C15.2609 14.7116 15.3268 14.493 15.5234 14.3904Z" fill="#FFEDB5"/>
<path d="M17.1602 17.8725C17.2103 18.1388 17.2419 18.412 17.2532 18.6911C18.7408 17.9147 20.2284 17.1382 21.7161 16.3617C21.4936 16.1929 21.2875 16.0108 21.0977 15.8174C19.7852 16.5023 18.4727 17.1874 17.1602 17.8725Z" fill="#EAA22F"/>
<path d="M16.355 19.0218L22.5009 15.8138C22.5823 15.7713 22.6826 15.8029 22.7251 15.8843C22.7676 15.9657 22.736 16.066 22.6546 16.1085L16.5087 19.3164C16.4273 19.359 16.327 19.3274 16.2845 19.246C16.2421 19.1646 16.2736 19.0643 16.355 19.0218Z" fill="#FFC61B"/>
<defs>
<linearGradient id="paint0_linear_2313_4294" x1="0" y1="21" x2="42" y2="21" gradientUnits="userSpaceOnUse">
<stop stop-color="#0B1631"/>
<stop offset="1" stop-color="#132553"/>
</linearGradient>
</defs>
</svg>
