<svg width="42" height="42" viewBox="0 0 42 42" fill="none" xmlns="http://www.w3.org/2000/svg">
<path d="M0 6C0 2.68629 2.68629 0 6 0H36C39.3137 0 42 2.68629 42 6V36C42 39.3137 39.3137 42 36 42H6C2.68629 42 0 39.3137 0 36V6Z" fill="url(#paint0_linear_2313_4243)"/>
<path fill-rule="evenodd" clip-rule="evenodd" d="M21.5 32.2188C27.5406 32.2188 32.4375 27.3219 32.4375 21.2812C32.4375 15.2406 27.5406 10.3438 21.5 10.3438C15.4594 10.3438 10.5625 15.2406 10.5625 21.2812C10.5625 23.2429 11.0789 25.0839 11.9832 26.6758L10.5625 32.2188L16.2772 30.8936C17.8292 31.7386 19.6085 32.2188 21.5 32.2188ZM21.5 30.5361C26.6113 30.5361 30.7548 26.3926 30.7548 21.2812C30.7548 16.17 26.6113 12.0264 21.5 12.0264C16.3887 12.0264 12.2452 16.17 12.2452 21.2812C12.2452 23.2548 12.8629 25.084 13.9155 26.5861L13.0865 29.6947L16.2499 28.9038C17.7417 29.9333 19.5505 30.5361 21.5 30.5361Z" fill="#BFC8D0"/>
<path d="M30.875 20.5C30.875 25.6777 26.6777 29.875 21.5 29.875C19.5252 29.875 17.6929 29.2644 16.1818 28.2216L12.9773 29.0227L13.817 25.8738C12.7507 24.3521 12.125 22.4991 12.125 20.5C12.125 15.3223 16.3223 11.125 21.5 11.125C26.6777 11.125 30.875 15.3223 30.875 20.5Z" fill="url(#paint1_linear_2313_4243)"/>
<path fill-rule="evenodd" clip-rule="evenodd" d="M21.5 31.4375C27.5406 31.4375 32.4375 26.5406 32.4375 20.5C32.4375 14.4594 27.5406 9.5625 21.5 9.5625C15.4594 9.5625 10.5625 14.4594 10.5625 20.5C10.5625 22.4616 11.0789 24.3027 11.9832 25.8945L10.5625 31.4375L16.2772 30.1123C17.8292 30.9573 19.6085 31.4375 21.5 31.4375ZM21.5 29.7548C26.6113 29.7548 30.7548 25.6113 30.7548 20.5C30.7548 15.3887 26.6113 11.2452 21.5 11.2452C16.3887 11.2452 12.2452 15.3887 12.2452 20.5C12.2452 22.4735 12.8629 24.3027 13.9155 25.8048L13.0865 28.9134L16.2499 28.1226C17.7417 29.152 19.5505 29.7548 21.5 29.7548Z" fill="white"/>
<path d="M18.7646 15.4224C18.5046 14.9001 18.1057 14.9464 17.7027 14.9464C16.9825 14.9464 15.8594 15.8091 15.8594 17.4147C15.8594 18.7306 16.4392 20.171 18.3931 22.3257C20.2787 24.4053 22.7564 25.481 24.8132 25.4443C26.8701 25.4078 27.2933 23.6377 27.2933 23.04C27.2933 22.775 27.1289 22.6428 27.0157 22.6069C26.3147 22.2705 25.0219 21.6437 24.7278 21.526C24.4336 21.4082 24.28 21.5675 24.1846 21.6542C23.9179 21.9083 23.3891 22.6575 23.208 22.826C23.027 22.9946 22.7571 22.9092 22.6447 22.8456C22.2314 22.6797 21.1107 22.1812 20.2174 21.3152C19.1125 20.2442 19.0477 19.8757 18.8396 19.5478C18.6731 19.2853 18.7953 19.1244 18.8562 19.054C19.0943 18.7794 19.4229 18.3553 19.5704 18.1446C19.7177 17.9339 19.6007 17.6139 19.5305 17.4147C19.2286 16.5577 18.9727 15.8403 18.7646 15.4224Z" fill="white"/>
<defs>
<linearGradient id="paint0_linear_2313_4243" x1="0" y1="21" x2="42" y2="21" gradientUnits="userSpaceOnUse">
<stop stop-color="#0B1631"/>
<stop offset="1" stop-color="#132553"/>
</linearGradient>
<linearGradient id="paint1_linear_2313_4243" x1="29.7031" y1="13.4687" x2="12.125" y2="29.875" gradientUnits="userSpaceOnUse">
<stop stop-color="#5BD066"/>
<stop offset="1" stop-color="#27B43E"/>
</linearGradient>
</defs>
</svg>
