<svg width="49" height="49" viewBox="0 0 49 49" fill="none" xmlns="http://www.w3.org/2000/svg">
<path d="M0 6C0 2.68629 2.68629 0 6 0H43C46.3137 0 49 2.68629 49 6V43C49 46.3137 46.3137 49 43 49H6C2.68629 49 0 46.3137 0 43V6Z" fill="#ED1A24"/>
<path fill-rule="evenodd" clip-rule="evenodd" d="M24.5 13L15 16.9574V23.472C15 29.327 19.0499 34.8118 24.5 36.2004C29.9501 34.8697 34 29.3849 34 23.5298V16.9574L24.5 13ZM24.5 17.3855C25.2041 17.3857 25.8863 17.63 26.4304 18.0767C26.9746 18.5235 27.347 19.1451 27.4842 19.8357C27.6214 20.5263 27.5149 21.243 27.1829 21.8639C26.8509 22.4847 26.3138 22.9713 25.6633 23.2406C25.0128 23.5099 24.289 23.5453 23.6153 23.3408C22.9416 23.1363 22.3597 22.7045 21.9686 22.119C21.5776 21.5335 21.4016 20.8306 21.4708 20.1299C21.5399 19.4293 21.8498 18.7743 22.3477 18.2765C22.6304 17.9939 22.966 17.7698 23.3353 17.6169C23.7045 17.464 24.1003 17.3854 24.5 17.3855ZM29.2558 30.2875C28.0433 31.8658 26.3874 33.0463 24.5 33.6778C22.6126 33.0463 20.9567 31.8658 19.7442 30.2875V27.6839C19.7442 25.7515 22.9147 24.768 24.5 24.768C26.0853 24.768 29.2558 25.7515 29.2558 27.6839V30.2875Z" fill="white"/>
<path fill-rule="evenodd" clip-rule="evenodd" d="M24.5 13V17.3855C25.3071 17.3855 26.0812 17.7061 26.6519 18.2769C27.2226 18.8476 27.5432 19.6216 27.5432 20.4287C27.5432 21.2359 27.2226 22.0099 26.6519 22.5806C26.0812 23.1514 25.3071 23.472 24.5 23.472V24.768C26.0853 24.768 29.2558 25.7515 29.2558 27.6839V30.2875C28.0433 31.8658 26.3874 33.0463 24.5 33.6778V36.1425C29.9501 34.8118 34 29.327 34 23.472V16.9574L24.5 13Z" fill="white"/>
</svg>
