<svg width="57" height="57" viewBox="0 0 57 57" fill="none" xmlns="http://www.w3.org/2000/svg">
<g filter="url(#filter0_d_2698_2157)">
<path d="M4 6C4 2.68629 6.68629 0 10 0H47C50.3137 0 53 2.68629 53 6V43C53 46.3137 50.3137 49 47 49H10C6.68629 49 4 46.3137 4 43V6Z" fill="#ED1A24"/>
<path fill-rule="evenodd" clip-rule="evenodd" d="M33.7778 15C34.861 15 35.9029 15.4163 36.6877 16.1629C37.4726 16.9095 37.9406 17.9292 37.9947 19.0111L38 19.2222V29.7778C38 30.861 37.5837 31.9029 36.8371 32.6877C36.0905 33.4726 35.0708 33.9406 33.9889 33.9947L33.7778 34H23.2222C22.139 34 21.0971 33.5837 20.3123 32.8371C19.5274 32.0905 19.0594 31.0708 19.0053 29.9889L19 29.7778V19.2222C19 18.139 19.4163 17.0971 20.1629 16.3123C20.9095 15.5274 21.9292 15.0594 23.0111 15.0053L23.2222 15H33.7778ZM28.4958 17.0805C27.9416 17.0805 27.4824 17.2388 27.0972 17.5428C26.7341 17.831 26.4765 18.2216 26.258 18.6121C26.151 18.8056 26.0479 19.003 25.9487 19.2043C25.7448 19.1588 25.54 19.1176 25.3344 19.0808C24.89 19.0016 24.4203 18.9541 23.9643 19.0544C23.4819 19.1599 23.0671 19.4186 22.7145 19.8534C22.3408 20.3147 22.1793 20.8024 22.1952 21.3228C22.2089 21.8083 22.3778 22.2823 22.5657 22.7246C22.6311 22.878 22.7004 23.0342 22.7736 23.1932C22.6128 23.325 22.4544 23.4598 22.2986 23.5975C21.9566 23.9026 21.6231 24.2456 21.4162 24.6689C21.1956 25.1175 21.1396 25.6083 21.2684 26.1614C21.3898 26.6892 21.6378 27.0956 22.0073 27.4007C22.3598 27.6899 22.7852 27.8556 23.2032 27.9812C23.4175 28.0446 23.6571 28.1037 23.9052 28.1638C23.9073 28.4383 23.9126 28.7053 23.9305 28.9492C23.9622 29.3735 24.0339 29.8116 24.2387 30.2074C24.4541 30.6233 24.7908 30.9463 25.2626 31.1764C25.7862 31.4308 26.2865 31.4825 26.7826 31.3601C27.2481 31.2439 27.6651 30.9843 28.0461 30.7109C28.196 30.6025 28.3473 30.4896 28.5 30.3721C28.6527 30.4903 28.8047 30.6036 28.956 30.7119C29.3371 30.9853 29.7529 31.2439 30.2174 31.359C30.7135 31.4814 31.2149 31.4287 31.7363 31.1753C32.2103 30.9431 32.5459 30.6212 32.7613 30.2042C32.9661 29.8073 33.0378 29.3682 33.0674 28.9428C33.0853 28.7001 33.0906 28.4351 33.0938 28.1617C33.3418 28.1016 33.5825 28.0414 33.7978 27.977C34.2158 27.8514 34.6402 27.6846 34.9906 27.3964C35.3601 27.0903 35.6081 26.685 35.7295 26.1583C35.8562 25.6052 35.8002 25.1133 35.5796 24.6636C35.3717 24.2414 35.0371 23.8973 34.6951 23.5922C34.5399 23.4553 34.3822 23.3212 34.2222 23.1901C34.2954 23.0303 34.365 22.873 34.4312 22.7182C34.618 22.2759 34.7858 21.8041 34.7996 21.3186C34.8143 20.7982 34.6518 20.3116 34.2792 19.8503C33.9266 19.4154 33.5107 19.1568 33.0273 19.0523C32.5713 18.952 32.1016 18.9995 31.6561 19.0787C31.4534 19.116 31.2494 19.1575 31.0439 19.2032C30.945 19.0028 30.8415 18.8047 30.7336 18.6089C30.5151 18.2184 30.2564 17.8289 29.8933 17.5428C29.5091 17.2378 29.0499 17.0805 28.4958 17.0805ZM25.1782 28.4868C25.4906 28.5776 25.8157 28.6853 26.1535 28.8193C26.6475 29.0632 27.0666 29.3228 27.4423 29.5836L27.3083 29.6817C26.9536 29.9361 26.6992 30.0754 26.4786 30.1303C26.2897 30.1778 26.0923 30.1704 25.8199 30.0385C25.5687 29.915 25.4442 29.7778 25.365 29.6258C25.2763 29.4537 25.2214 29.2173 25.1951 28.8563C25.1863 28.7333 25.1807 28.6101 25.1782 28.4868ZM31.8229 28.4858C31.8203 28.608 31.8147 28.7301 31.806 28.8521C31.7796 29.2141 31.7258 29.4516 31.6371 29.6226C31.5579 29.7757 31.4334 29.9139 31.1822 30.0364C30.9098 30.1694 30.7124 30.1757 30.5224 30.1293C30.3346 30.0828 30.1213 29.9741 29.8406 29.7841L29.5587 29.5836C29.9714 29.2952 30.4051 29.038 30.856 28.8141C31.1903 28.6832 31.5126 28.5737 31.8229 28.4858ZM30.3557 20.6472C30.5541 21.0198 30.7832 21.4209 31.0534 21.8263L31.2793 22.1514L31.2951 22.1704C31.7564 22.7161 32.2346 23.1668 32.6737 23.5468C32.4488 24.0757 32.2177 24.6868 32.0414 25.3877L31.9538 25.7677L31.9506 25.792C31.882 26.2881 31.8535 26.7473 31.8408 27.1642C31.4798 27.2592 31.0893 27.3753 30.6766 27.5263L30.3409 27.654L30.3198 27.6646C29.6815 27.9827 29.0722 28.3561 28.4989 28.7803C28.0788 28.4742 27.5943 28.1491 27.0338 27.8482L26.6676 27.6593L26.6443 27.6508C26.1587 27.4584 25.6616 27.2963 25.156 27.1653C25.1465 26.8549 25.1286 26.5214 25.0916 26.1667L25.0452 25.7814L25.0399 25.7582C24.8731 25.0002 24.6327 24.2603 24.3221 23.5489C24.6704 23.2471 25.0462 22.8987 25.4167 22.4934L25.7091 22.1609L25.7228 22.1419C26.0923 21.6299 26.3899 21.1169 26.638 20.6483C27.0718 20.7327 27.5521 20.8119 28.0683 20.8562L28.4926 20.8847L28.5243 20.8837C29.1946 20.8509 29.8121 20.7549 30.3557 20.6472ZM23.3046 24.4008C23.4914 24.8726 23.6656 25.3941 23.7964 25.9989C23.8344 26.2944 23.8608 26.5784 23.8756 26.8507L23.5653 26.7663C23.2001 26.6565 22.9678 26.5488 22.8127 26.4211C22.6754 26.3082 22.5657 26.1551 22.5013 25.8754C22.4348 25.5862 22.4696 25.3941 22.5541 25.2252C22.6364 25.0563 22.781 24.8789 23.0164 24.6552L23.1431 24.5412C23.1923 24.4961 23.2469 24.4493 23.3046 24.4008ZM33.6912 24.3976L33.8506 24.5369C34.1631 24.8146 34.3457 25.0257 34.4417 25.2209C34.5262 25.3898 34.561 25.583 34.4945 25.8722C34.4301 26.1509 34.3203 26.305 34.1842 26.4169C34.029 26.5457 33.7978 26.6533 33.4337 26.7621L33.1212 26.8486C33.1353 26.5742 33.1617 26.2871 33.2004 25.9873C33.3197 25.4447 33.4839 24.913 33.6912 24.3976ZM25.1148 20.3274L25.3492 20.3728C25.1697 20.6937 24.9639 21.0272 24.7106 21.3819C24.4208 21.7207 24.1098 22.0408 23.7796 22.3403L23.7321 22.2295C23.5537 21.8104 23.4682 21.5223 23.4608 21.2848C23.4544 21.0842 23.5051 20.89 23.6993 20.6504C23.8841 20.4224 24.0551 20.3316 24.2356 20.2915C24.4435 20.2461 24.7148 20.2577 25.1148 20.3274ZM32.7571 20.2894C32.9386 20.3284 33.1096 20.4192 33.2954 20.6483C33.4886 20.8868 33.5382 21.0811 33.5329 21.2816C33.5276 21.4843 33.4643 21.7249 33.3344 22.0532L33.2152 22.3382C32.8829 22.0365 32.5701 21.7139 32.2789 21.3724C32.0492 21.0509 31.8378 20.7169 31.6456 20.3717L31.8778 20.3263C32.2789 20.2556 32.5481 20.244 32.7571 20.2894ZM28.4968 18.3472C28.7892 18.3472 28.9655 18.4221 29.1091 18.5361C29.2737 18.6659 29.4342 18.8781 29.6284 19.2264C29.6706 19.3017 29.7146 19.3837 29.7603 19.4724C29.3414 19.5464 28.9184 19.5951 28.4937 19.6181C28.0717 19.5951 27.6516 19.5468 27.2354 19.4734L27.3653 19.2286C27.5606 18.8802 27.721 18.6659 27.8857 18.5361C28.0292 18.4221 28.2055 18.3472 28.4979 18.3472" fill="white"/>
</g>
<defs>
<filter id="filter0_d_2698_2157" x="0" y="0" width="57" height="57" filterUnits="userSpaceOnUse" color-interpolation-filters="sRGB">
<feFlood flood-opacity="0" result="BackgroundImageFix"/>
<feColorMatrix in="SourceAlpha" type="matrix" values="0 0 0 0 0 0 0 0 0 0 0 0 0 0 0 0 0 0 127 0" result="hardAlpha"/>
<feOffset dy="4"/>
<feGaussianBlur stdDeviation="2"/>
<feComposite in2="hardAlpha" operator="out"/>
<feColorMatrix type="matrix" values="0 0 0 0 0 0 0 0 0 0 0 0 0 0 0 0 0 0 0.25 0"/>
<feBlend mode="normal" in2="BackgroundImageFix" result="effect1_dropShadow_2698_2157"/>
<feBlend mode="normal" in="SourceGraphic" in2="effect1_dropShadow_2698_2157" result="shape"/>
</filter>
</defs>
</svg>
