<svg width="49" height="49" viewBox="0 0 49 49" fill="none" xmlns="http://www.w3.org/2000/svg">
<path d="M0 6C0 2.68629 2.68629 0 6 0H43C46.3137 0 49 2.68629 49 6V43C49 46.3137 46.3137 49 43 49H6C2.68629 49 0 46.3137 0 43V6Z" fill="#ED1A24"/>
<path fill-rule="evenodd" clip-rule="evenodd" d="M24.1192 16.2771C24.2373 16.2185 24.3673 16.188 24.4992 16.188C24.631 16.188 24.7611 16.2185 24.8792 16.2771L28.9425 18.3087C29.0886 18.379 29.2114 18.4901 29.2959 18.6286C29.3804 18.767 29.4231 18.9269 29.4188 19.0891V23.2962L33.0139 25.0944C33.1601 25.1648 33.2828 25.2758 33.3673 25.4143C33.4518 25.5527 33.4945 25.7126 33.4902 25.8748V30.6071C33.4895 30.7644 33.4454 30.9185 33.3628 31.0523C33.2802 31.1862 33.1623 31.2946 33.022 31.3658L28.9506 33.4015C28.8325 33.4601 28.7024 33.4906 28.5706 33.4906C28.4388 33.4906 28.3087 33.4601 28.1906 33.4015L24.4992 31.5558L20.8077 33.4015C20.6896 33.4601 20.5596 33.4906 20.4277 33.4906C20.2959 33.4906 20.1659 33.4601 20.0477 33.4015L15.9763 31.3658C15.836 31.2946 15.7181 31.1862 15.6355 31.0523C15.5529 30.9185 15.5088 30.7644 15.5081 30.6071V25.8748C15.5038 25.7126 15.5465 25.5527 15.631 25.4143C15.7156 25.2758 15.8383 25.1648 15.9845 25.0944L19.5809 23.2976V19.0891C19.5765 18.9271 19.619 18.7673 19.7033 18.6288C19.7875 18.4904 19.91 18.3792 20.0559 18.3087L24.1192 16.2771ZM17.2045 27.2292L20.0491 28.6515C20.167 28.7099 20.2968 28.7403 20.4284 28.7403C20.56 28.7403 20.6898 28.7099 20.8077 28.6515L23.651 27.2292V30.0833L20.4277 31.6929L17.2045 30.0819V27.2292ZM25.3474 30.0833V27.2279L28.192 28.6501C28.3099 28.7085 28.4397 28.7389 28.5713 28.7389C28.7029 28.7389 28.8327 28.7085 28.9506 28.6501L31.7938 27.2279V30.0819L28.5706 31.6929L25.3474 30.0833ZM21.276 20.4435V23.2976L24.4992 24.9071L27.7224 23.2962V20.4421L24.8792 21.8671C24.7611 21.9257 24.631 21.9562 24.4992 21.9562C24.3673 21.9562 24.2373 21.9257 24.1192 21.8671L21.276 20.4435Z" fill="white"/>
</svg>
