<svg width="49" height="49" viewBox="0 0 49 49" fill="none" xmlns="http://www.w3.org/2000/svg">
<path d="M0 6C0 2.68629 2.68629 0 6 0H43C46.3137 0 49 2.68629 49 6V43C49 46.3137 46.3137 49 43 49H6C2.68629 49 0 46.3137 0 43V6Z" fill="#ED1A24"/>
<path fill-rule="evenodd" clip-rule="evenodd" d="M29.0093 14.824C29.4241 14.0658 30.5134 14.0658 30.9282 14.824L31.7997 16.4174C31.9804 16.7478 32.252 17.0194 32.5824 17.2001L34.1757 18.0716C34.9339 18.4863 34.9339 19.5757 34.1757 19.9904L32.5824 20.8619C32.252 21.0426 31.9804 21.3143 31.7997 21.6446L30.9282 23.238C30.5134 23.9962 29.4241 23.9962 29.0093 23.238L28.1378 21.6446C27.9571 21.3143 27.6855 21.0426 27.3551 20.8619L25.7617 19.9904C25.0036 19.5757 25.0036 18.4863 25.7617 18.0716L27.3551 17.2001C27.6855 17.0194 27.9571 16.7478 28.1378 16.4174L29.0093 14.824ZM26.4237 16.2135L25.1322 16.9201C23.4631 17.8327 23.4631 20.2293 25.1322 21.142L26.7256 22.0134C26.8356 22.0737 26.9261 22.1641 26.9863 22.2742L27.8578 23.8676C28.3522 24.7719 29.2823 25.1862 30.1766 25.1101C29.7479 26.8616 28.7466 28.4199 27.3315 29.5376C27.258 29.7993 27.1813 30.06 27.1014 30.3198C26.8957 30.9909 26.3248 31.505 25.5911 31.5816C24.9554 31.6476 23.9046 31.7185 22.3125 31.7185C20.7204 31.7185 19.6696 31.6476 19.0339 31.5816C18.3002 31.505 17.7297 30.9909 17.5236 30.3198C17.4437 30.06 17.367 29.7993 17.2935 29.5376C15.4219 28.0562 14.2188 25.762 14.2188 23.1873C14.2188 18.7173 17.8426 15.0935 22.3125 15.0935C23.8131 15.0935 25.2188 15.5021 26.4237 16.2135ZM18.5706 32.611C18.6843 32.6373 18.8007 32.6567 18.9197 32.6692C19.5987 32.7401 20.6881 32.8123 22.3121 32.8123C23.9361 32.8123 25.025 32.7401 25.7044 32.6692C25.8601 32.653 26.0142 32.6242 26.1651 32.583L26.1511 32.7143C26.0483 33.6614 25.3693 34.5198 24.3298 34.6568C23.6606 34.7413 22.9866 34.7828 22.3121 34.781C21.4502 34.781 20.7812 34.7189 20.2899 34.6445C19.3856 34.5076 18.7902 33.7892 18.6392 32.9833C18.6174 32.8669 18.5945 32.7426 18.5706 32.611Z" fill="white"/>
</svg>
