<svg width="49" height="49" viewBox="0 0 49 49" fill="none" xmlns="http://www.w3.org/2000/svg">
<path d="M0 6C0 2.68629 2.68629 0 6 0H43C46.3137 0 49 2.68629 49 6V43C49 46.3137 46.3137 49 43 49H6C2.68629 49 0 46.3137 0 43V6Z" fill="#ED1A24"/>
<path d="M29.591 31.9637H16.2243C16.0743 31.9699 15.9245 31.9466 15.7836 31.8949C15.6426 31.8433 15.5133 31.7644 15.4028 31.6627C15.2924 31.561 15.2031 31.4386 15.14 31.3023C15.0769 31.1661 15.0413 31.0188 15.0352 30.8688V13.7757C15.0413 13.6258 15.0769 13.4784 15.14 13.3422C15.2031 13.206 15.2924 13.0836 15.4028 12.9819C15.5133 12.8802 15.6426 12.8013 15.7836 12.7496C15.9245 12.698 16.0743 12.6746 16.2243 12.6809H29.591C29.7414 12.674 29.8917 12.6969 30.0332 12.7482C30.1747 12.7996 30.3046 12.8784 30.4156 12.9801C30.5265 13.0819 30.6162 13.2046 30.6796 13.3411C30.743 13.4776 30.7788 13.6253 30.7849 13.7757V30.8688C30.7788 31.0192 30.743 31.167 30.6796 31.3035C30.6162 31.44 30.5265 31.5627 30.4156 31.6644C30.3046 31.7662 30.1747 31.845 30.0332 31.8963C29.8917 31.9477 29.7414 31.9706 29.591 31.9637Z" fill="#E5E7EB"/>
<path d="M29.5825 31.9917H16.2158C15.9058 32.0039 15.6036 31.8925 15.3757 31.682C15.1477 31.4716 15.0126 31.1793 15 30.8693V13.7762C15.0126 13.4662 15.1477 13.1739 15.3757 12.9635C15.6036 12.753 15.9058 12.6416 16.2158 12.6537H29.5825C29.8925 12.6416 30.1947 12.753 30.4226 12.9635C30.6506 13.1739 30.7857 13.4662 30.7983 13.7762V30.8693C30.7857 31.1793 30.6506 31.4716 30.4226 31.682C30.1947 31.8925 29.8925 32.0039 29.5825 31.9917ZM16.2158 12.708C15.9203 12.6964 15.6322 12.8022 15.4146 13.0024C15.1969 13.2026 15.0674 13.4808 15.0543 13.7762V30.8693C15.0676 31.1646 15.1972 31.4427 15.4148 31.6428C15.6324 31.8429 15.9204 31.9488 16.2158 31.9375H29.5825C29.8779 31.9488 30.1659 31.8429 30.3835 31.6428C30.6011 31.4427 30.7307 31.1646 30.744 30.8693V13.7762C30.7309 13.4808 30.6014 13.2026 30.3837 13.0024C30.1661 12.8022 29.878 12.6964 29.5825 12.708H16.2158Z" fill="#231F20"/>
<path d="M31.7018 30.2321H18.3483C18.0464 30.2445 17.7518 30.1367 17.5291 29.9324C17.3064 29.7281 17.1738 29.4439 17.1602 29.142V12.1175C17.1738 11.8156 17.3064 11.5313 17.5291 11.327C17.7518 11.1227 18.0464 11.015 18.3483 11.0274H31.7018C32.0039 11.0147 32.2987 11.1224 32.5216 11.3267C32.7445 11.531 32.8773 11.8154 32.8909 12.1175V29.1401C32.8778 29.4425 32.7452 29.7274 32.5222 29.9321C32.2993 30.1368 32.0042 30.2447 31.7018 30.2321ZM29.6834 25.0501C29.4637 25.0501 29.2489 25.1153 29.0661 25.2373C28.8834 25.3594 28.741 25.5329 28.6569 25.736C28.5728 25.939 28.5508 26.1624 28.5937 26.3779C28.6366 26.5934 28.7424 26.7914 28.8978 26.9468C29.0532 27.1021 29.2511 27.208 29.4667 27.2508C29.6822 27.2937 29.9056 27.2717 30.1086 27.1876C30.3116 27.1035 30.4851 26.9611 30.6072 26.7784C30.7293 26.5957 30.7944 26.3809 30.7944 26.1611C30.7942 25.8664 30.6771 25.5837 30.4689 25.3751C30.2606 25.1665 29.9782 25.0489 29.6834 25.0482V25.0501Z" fill="white"/>
<path d="M31.7011 30.257H18.3476C18.0387 30.2689 17.7377 30.1582 17.5101 29.949C17.2825 29.7398 17.1469 29.4491 17.1328 29.1403V12.1177C17.1469 11.8089 17.2825 11.5182 17.5101 11.309C17.7377 11.0998 18.0387 10.989 18.3476 11.0009H31.7011C32.0101 10.9888 32.3114 11.0994 32.5392 11.3086C32.767 11.5178 32.9027 11.8087 32.9168 12.1177V29.1403C32.916 29.2897 32.8838 29.4372 32.8223 29.5733C32.7608 29.7094 32.6713 29.8311 32.5598 29.9305C32.325 30.1438 32.0183 30.2605 31.7011 30.257ZM18.3476 11.0552C18.053 11.0433 17.7657 11.1483 17.5481 11.3473C17.3306 11.5463 17.2005 11.8232 17.1861 12.1177V29.1403C17.2002 29.4349 17.3302 29.7119 17.5478 29.911C17.7655 30.11 18.053 30.2149 18.3476 30.2028H31.7011C32.0046 30.2059 32.2982 30.0948 32.5236 29.8915C32.6298 29.7971 32.7149 29.6815 32.7733 29.552C32.8317 29.4226 32.8621 29.2823 32.8626 29.1403V12.1177C32.8485 11.8231 32.7184 11.546 32.5008 11.347C32.2832 11.1479 31.9957 11.043 31.7011 11.0552H18.3476ZM29.6827 27.2971C29.4566 27.2981 29.2352 27.2319 29.0467 27.1069C28.8582 26.9819 28.711 26.8038 28.6238 26.5952C28.5366 26.3865 28.5133 26.1566 28.5569 25.9347C28.6004 25.7128 28.7088 25.5088 28.8684 25.3485C29.028 25.1883 29.2316 25.079 29.4533 25.0345C29.6751 24.9901 29.905 25.0124 30.1141 25.0987C30.3231 25.1851 30.5018 25.3315 30.6275 25.5195C30.7533 25.7074 30.8204 25.9285 30.8204 26.1547C30.8204 26.4568 30.7007 26.7467 30.4875 26.9608C30.2743 27.1749 29.9849 27.2959 29.6827 27.2971ZM29.6827 25.076C29.4684 25.076 29.259 25.1395 29.0808 25.2586C28.9026 25.3776 28.7638 25.5468 28.6818 25.7448C28.5998 25.9428 28.5783 26.1606 28.6201 26.3708C28.6619 26.581 28.7651 26.774 28.9166 26.9255C29.0681 27.077 29.2612 27.1802 29.4714 27.222C29.6815 27.2638 29.8994 27.2424 30.0973 27.1604C30.2953 27.0784 30.4645 26.9395 30.5836 26.7613C30.7026 26.5832 30.7661 26.3737 30.7661 26.1594C30.7656 25.8722 30.6513 25.597 30.4483 25.3939C30.2452 25.1908 29.9699 25.0765 29.6827 25.076Z" fill="#231F20"/>
<path d="M30.3919 15.6264H19.5547V14.1631H30.3919V15.6264ZM30.3919 17.144H19.5547V18.6063H30.3919V17.144ZM30.3919 20.3952H19.5547V21.8537H30.3919V20.3952ZM25.5155 23.6464H19.5547V25.1088H25.5155V23.6464Z" fill="black"/>
<path d="M25.5462 25.1367H19.5273V23.6191H25.5462V25.1367ZM19.5854 25.0824H25.4881V23.6734H19.5854V25.0824ZM30.4226 21.8854H19.5273V20.3679H30.4188L30.4226 21.8854ZM19.5854 21.8312H30.3645V20.426H19.5816L19.5854 21.8312ZM30.4226 18.6342H19.5273V17.1166H30.4188L30.4226 18.6342ZM19.5816 18.5799H30.3645V17.1709H19.5816V18.5799ZM30.4188 15.6543H19.5273V14.1367H30.4188V15.6543ZM19.5816 15.6H30.3645V14.191H19.5816V15.6Z" fill="#231F20"/>
<path fill-rule="evenodd" clip-rule="evenodd" d="M27.5884 31.9637C27.2635 32.0142 26.9707 32.1886 26.7716 32.4502C26.5724 32.7118 26.4823 33.0404 26.5202 33.3671V36.2622C26.483 36.5883 26.5739 36.9161 26.7737 37.1765C26.9735 37.4369 27.2666 37.6095 27.5912 37.658H32.9227C33.2476 37.6102 33.5412 37.4377 33.7411 37.1772C33.941 36.9166 34.0317 36.5885 33.9938 36.2622L33.9395 33.3671C33.9395 32.5978 33.5168 31.9657 32.9256 31.9637V28.6135C32.9983 27.8522 32.7661 27.0931 32.28 26.5027C31.7938 25.9123 31.0933 25.5388 30.3322 25.4641C30.2195 25.4567 30.1072 25.4829 30.0094 25.5393C29.8988 25.6006 29.8076 25.6917 29.7461 25.8023C29.6847 25.9129 29.6555 26.0385 29.6619 26.1648C29.6597 26.2901 29.6947 26.4133 29.7624 26.5187C29.8302 26.6241 29.9278 26.7071 30.0428 26.757C30.1156 26.7923 30.1951 26.8118 30.276 26.8141C31.0557 26.8284 31.7346 27.7414 31.7212 29.4741V31.9628M30.6387 34.5038V35.7072C30.6349 35.7691 30.6076 35.8272 30.5624 35.8696C30.5172 35.9121 30.4575 35.9357 30.3955 35.9357C30.3335 35.9357 30.2738 35.9121 30.2286 35.8696C30.1834 35.8272 30.1561 35.7691 30.1522 35.7072V34.5048C30.0125 34.4606 29.8903 34.3734 29.8031 34.2556C29.7158 34.1377 29.6681 33.9954 29.6667 33.8488C29.6763 33.6618 29.7573 33.4857 29.893 33.3567C30.0287 33.2278 30.2088 33.1559 30.396 33.1559C30.5832 33.1559 30.7632 33.2278 30.899 33.3567C31.0347 33.4857 31.1157 33.6618 31.1252 33.8488C31.1231 33.9952 31.0751 34.1372 30.988 34.2549C30.9009 34.3726 30.7791 34.46 30.6397 34.5048L30.6387 34.5038Z" fill="#4B4B4D"/>
</svg>
