<svg width="69" height="69" viewBox="0 0 69 69" fill="none" xmlns="http://www.w3.org/2000/svg">
<path d="M0 6C0 2.68629 2.68629 0 6 0H63C66.3137 0 69 2.68629 69 6V63C69 66.3137 66.3137 69 63 69H6C2.68629 69 0 66.3137 0 63V6Z" fill="black"/>
<path d="M35 19C28.1763 19 22.6576 24.4904 22.6576 31.2792C22.6576 34.5301 23.923 37.4832 25.9913 39.6783L29.2198 35.2284V35.2283C28.4419 34.1046 27.9857 32.7438 27.9857 31.2792C27.9857 27.4315 31.1325 24.3009 35 24.3009C35.9146 24.3009 36.7889 24.4759 37.5908 24.7942C37.1168 25.1973 36.7362 25.6979 36.4752 26.2614C36.2142 26.8249 36.0791 27.438 36.0791 28.0584C36.0791 29.1974 36.5339 30.2897 37.3434 31.095C38.1529 31.9004 39.2508 32.3528 40.3956 32.3528C40.9347 32.3528 41.4691 32.2523 41.9711 32.0565C41.8404 33.2243 41.4187 34.3061 40.7801 35.2283V35.2284L44.0087 39.6783C46.077 37.4832 47.3424 34.5301 47.3424 31.2792C47.3424 24.4904 41.8237 19 35 19ZM35 31.9435L32.1611 33.2381L20 50H22.5058L25.2879 46.3095L24.3606 50H27.689L31.7626 39.868L30.7442 50H36.0357L35 35.5736L38.1073 50H41.323L38.2374 37.7208L43.9015 50H46.618L44.1801 44.1623L48.5739 50H50L37.8389 33.2381L35 31.9435Z" fill="white"/>
</svg>
