<svg width="69" height="69" viewBox="0 0 69 69" fill="none" xmlns="http://www.w3.org/2000/svg">
<path d="M0 6C0 2.68629 2.68629 0 6 0H63C66.3137 0 69 2.68629 69 6V63C69 66.3137 66.3137 69 63 69H6C2.68629 69 0 66.3137 0 63V6Z" fill="black"/>
<path d="M42.2723 46.2293C42.4973 46.0043 42.6098 45.731 42.6098 45.4095C42.6098 45.0869 42.4973 44.8131 42.2723 44.588C42.0472 44.3618 41.7734 44.2487 41.4507 44.2487C41.1281 44.2487 40.8543 44.3618 40.6292 44.588C40.4042 44.8142 40.2917 45.088 40.2917 45.4095C40.2917 45.731 40.4042 46.0043 40.6292 46.2293C40.8543 46.4555 41.1281 46.5686 41.4507 46.5686C41.7734 46.5686 42.0472 46.4555 42.2723 46.2293ZM46.0146 46.2293C46.2397 46.0043 46.3522 45.731 46.3522 45.4095C46.3522 45.0869 46.2397 44.8131 46.0146 44.588C45.7896 44.3618 45.5158 44.2487 45.1931 44.2487C44.8705 44.2487 44.5967 44.3618 44.3716 44.588C44.1466 44.8142 44.0341 45.088 44.0341 45.4095C44.0341 45.731 44.1466 46.0043 44.3716 46.2293C44.5967 46.4555 44.8705 46.5686 45.1931 46.5686C45.5158 46.5686 45.7896 46.4555 46.0146 46.2293ZM49.757 46.2293C49.9821 46.0043 50.0946 45.731 50.0946 45.4095C50.0946 45.0869 49.9821 44.8131 49.757 44.588C49.532 44.3618 49.2582 44.2487 48.9355 44.2487C48.6129 44.2487 48.3391 44.3618 48.114 44.588C47.889 44.8142 47.7765 45.088 47.7765 45.4095C47.7765 45.731 47.889 46.0043 48.114 46.2293C48.3391 46.4555 48.6129 46.5686 48.9355 46.5686C49.2582 46.5686 49.532 46.4555 49.757 46.2293ZM45.1931 52.2984C43.2746 52.2984 41.6471 51.6296 40.3106 50.292C38.973 48.9556 38.3042 47.3281 38.3042 45.4095C38.3042 43.491 38.973 41.8629 40.3106 40.5253C41.6482 39.1877 43.2757 38.5195 45.1931 38.5206C47.1105 38.5218 48.7386 39.19 50.0774 40.5253C51.4161 41.8606 52.0843 43.4887 52.082 45.4095C52.082 47.3269 51.4138 48.9544 50.0774 50.292C48.7386 51.6296 47.1105 52.2984 45.1931 52.2984ZM27.1098 29.2447H42.6098V27.5225H27.1098V29.2447ZM34.0349 48.6542H23.8651C23.0936 48.6542 22.4368 48.3832 21.8949 47.8413C21.353 47.2994 21.082 46.6432 21.082 45.8728V23.88C21.082 23.1108 21.353 22.4546 21.8949 21.9115C22.4368 21.3696 23.0936 21.0986 23.8651 21.0986H45.8562C46.6255 21.0986 47.2816 21.3696 47.8247 21.9115C48.3666 22.4534 48.6376 23.1102 48.6376 23.8817V34.129C48.0704 33.9476 47.5015 33.8058 46.9309 33.7036C46.3591 33.6025 45.7798 33.552 45.1931 33.552C44.6122 33.552 44.0473 33.5979 43.4985 33.6898C42.9508 33.7816 42.4117 33.9114 41.8813 34.079V34.0153H27.1098V35.7375H38.4541C37.5838 36.3357 36.8191 37.0378 36.1601 37.8438C35.501 38.6498 34.9585 39.5373 34.5326 40.5064H27.1098V42.2286H33.9298C33.8058 42.7142 33.7088 43.2039 33.6388 43.6976C33.5699 44.1913 33.5354 44.6954 33.5354 45.2097C33.5354 45.7379 33.5664 46.3171 33.6284 46.9475C33.6904 47.5778 33.8259 48.1467 34.0349 48.6542Z" fill="white"/>
</svg>
