<svg preserveAspectRatio="none" width="100%" height="100%" overflow="visible" style="display: block;" viewBox="0 0 77 77" fill="none" xmlns="http://www.w3.org/2000/svg">
<g id="material-symbols:add-notes-outline-rounded">
<rect width="77" height="77" rx="10" fill="var(--fill-0, #FEE9E8)"/>
<path id="Vector" d="M46.375 48.125V51.625C46.375 51.8583 46.4625 52.0625 46.6375 52.2375C46.8125 52.4125 47.0167 52.5 47.25 52.5C47.4833 52.5 47.6875 52.4125 47.8625 52.2375C48.0375 52.0625 48.125 51.8583 48.125 51.625V48.125H51.625C51.8583 48.125 52.0625 48.0375 52.2375 47.8625C52.4125 47.6875 52.5 47.4833 52.5 47.25C52.5 47.0167 52.4125 46.8125 52.2375 46.6375C52.0625 46.4625 51.8583 46.375 51.625 46.375H48.125V42.875C48.125 42.6417 48.0375 42.4375 47.8625 42.2625C47.6875 42.0875 47.4833 42 47.25 42C47.0167 42 46.8125 42.0875 46.6375 42.2625C46.4625 42.4375 46.375 42.6417 46.375 42.875V46.375H42.875C42.6417 46.375 42.4375 46.4625 42.2625 46.6375C42.0875 46.8125 42 47.0167 42 47.25C42 47.4833 42.0875 47.6875 42.2625 47.8625C42.4375 48.0375 42.6417 48.125 42.875 48.125H46.375ZM24.5 52.5C23.5375 52.5 22.7138 52.1576 22.029 51.4727C21.3442 50.7879 21.0012 49.9637 21 49V24.5C21 23.5375 21.343 22.7138 22.029 22.029C22.715 21.3442 23.5387 21.0012 24.5 21H49C49.9625 21 50.7867 21.343 51.4727 22.029C52.1587 22.715 52.5012 23.5387 52.5 24.5V33.25C52.5 33.7458 52.332 34.1617 51.996 34.4977C51.66 34.8337 51.2447 35.0012 50.75 35C50.2553 34.9988 49.84 34.8308 49.504 34.496C49.168 34.1612 49 33.7458 49 33.25V24.5H24.5V49H33.25C33.7458 49 34.1617 49.168 34.4977 49.504C34.8337 49.84 35.0012 50.2553 35 50.75C34.9988 51.2447 34.8308 51.6606 34.496 51.9977C34.1612 52.3349 33.7458 52.5023 33.25 52.5H24.5ZM24.5 47.25V49V24.5V35.1312V35V47.25ZM28.504 44.9977C28.8388 45.3326 29.2542 45.5 29.75 45.5H33.3812C33.8771 45.5 34.293 45.332 34.629 44.996C34.965 44.66 35.1324 44.2447 35.1312 43.75C35.1301 43.2553 34.9627 42.84 34.629 42.504C34.2953 42.168 33.8794 42 33.3812 42H29.75C29.2542 42 28.8388 42.168 28.504 42.504C28.1692 42.84 28.0012 43.2553 28 43.75C27.9988 44.2447 28.1668 44.6606 28.504 44.9977ZM28.504 37.9977C28.8388 38.3326 29.2542 38.5 29.75 38.5H38.5C38.9958 38.5 39.4117 38.332 39.7477 37.996C40.0837 37.66 40.2512 37.2447 40.25 36.75C40.2488 36.2553 40.0808 35.84 39.746 35.504C39.4112 35.168 38.9958 35 38.5 35H29.75C29.2542 35 28.8388 35.168 28.504 35.504C28.1692 35.84 28.0012 36.2553 28 36.75C27.9988 37.2447 28.1668 37.6606 28.504 37.9977ZM28.504 30.9977C28.8388 31.3326 29.2542 31.5 29.75 31.5H43.75C44.2458 31.5 44.6617 31.332 44.9977 30.996C45.3337 30.66 45.5012 30.2447 45.5 29.75C45.4988 29.2553 45.3308 28.84 44.996 28.504C44.6612 28.168 44.2458 28 43.75 28H29.75C29.2542 28 28.8388 28.168 28.504 28.504C28.1692 28.84 28.0012 29.2553 28 29.75C27.9988 30.2447 28.1668 30.6606 28.504 30.9977ZM47.25 56C44.8292 56 42.7659 55.1466 41.0602 53.4397C39.3546 51.7329 38.5012 49.6697 38.5 47.25C38.4988 44.8303 39.3522 42.7671 41.0602 41.0602C42.7682 39.3534 44.8315 38.5 47.25 38.5C49.6685 38.5 51.7323 39.3534 53.4415 41.0602C55.1507 42.7671 56.0035 44.8303 56 47.25C55.9965 49.6697 55.1431 51.7335 53.4397 53.4415C51.7364 55.1495 49.6732 56.0023 47.25 56Z" fill="var(--fill-0, #ED3C42)"/>
</g>
</svg>
