<svg preserveAspectRatio="none" width="100%" height="100%" overflow="visible" style="display: block;" viewBox="0 0 39 39" fill="none" xmlns="http://www.w3.org/2000/svg">
<g id="mdi:fire-alert">
<path id="Vector" d="M25.4479 18.2C25.0741 17.7125 24.6191 17.29 24.1966 16.8675C23.1079 15.8925 21.8729 15.1938 20.8329 14.17C18.4116 11.7975 17.8754 7.88125 19.4191 4.875C17.8754 5.24875 16.5266 6.09375 15.3729 7.02C11.1641 10.4 9.50664 16.3638 11.4891 21.4825C11.5541 21.645 11.6191 21.8075 11.6191 22.0188C11.6191 22.3763 11.3754 22.7013 11.0504 22.8313C10.6766 22.9938 10.2866 22.8963 9.97789 22.6363C9.88566 22.559 9.80853 22.4653 9.75039 22.36C7.91414 20.0363 7.62164 16.705 8.85664 14.04C6.14289 16.25 4.66414 19.9875 4.87539 23.5138C4.97289 24.3263 5.07039 25.1388 5.34664 25.9513C5.57414 26.9263 6.01289 27.9013 6.50039 28.7625C8.25539 31.5738 11.2941 33.5888 14.5604 33.995C18.0379 34.4338 21.7591 33.8 24.4241 31.395C27.3979 28.6975 28.4379 24.375 26.9104 20.67L26.6991 20.2475C26.3579 19.5 25.4479 18.2 25.4479 18.2ZM20.3129 28.4375C19.8579 28.8275 19.1104 29.25 18.5254 29.4125C16.7054 30.0625 14.8854 29.1525 13.8129 28.08C15.7466 27.625 16.9004 26.195 17.2416 24.7488C17.5179 23.4488 16.9979 22.3763 16.7866 21.125C16.5916 19.9225 16.6241 18.8988 17.0629 17.7775C17.3716 18.395 17.6966 19.0125 18.0866 19.5C19.3379 21.125 21.3041 21.84 21.7266 24.05C21.7916 24.2775 21.8241 24.505 21.8241 24.7488C21.8729 26.0813 21.2879 27.5438 20.3129 28.4375ZM34.1254 21.125H30.8754V11.375H34.1254V21.125ZM34.1254 27.625H30.8754V24.375H34.1254V27.625Z" fill="var(--fill-0, #F3333F)"/>
</g>
</svg>
