<svg preserveAspectRatio="none" width="100%" height="100%" overflow="visible" style="display: block;" viewBox="0 0 54 54" fill="none" xmlns="http://www.w3.org/2000/svg">
<g id="ph:sparkle-bold">
<rect x="0.5" y="0.5" width="53" height="53" rx="26.5" fill="var(--fill-0, #EAF5E6)"/>
<rect x="0.5" y="0.5" width="53" height="53" rx="26.5" stroke="var(--stroke-0, #40CD74)"/>
<path id="Vector" d="M34.7649 26.7058L29.3092 24.6944L27.2934 19.2344C27.1393 18.8163 26.8607 18.4556 26.4952 18.2008C26.1297 17.946 25.6948 17.8094 25.2492 17.8094C24.8037 17.8094 24.3688 17.946 24.0033 18.2008C23.6378 18.4556 23.3592 18.8163 23.205 19.2344L21.1936 24.6944L15.7336 26.7058C15.3156 26.8599 14.9548 27.1385 14.7 27.5041C14.4452 27.8696 14.3086 28.3044 14.3086 28.75C14.3086 29.1956 14.4452 29.6304 14.7 29.9959C14.9548 30.3615 15.3156 30.6401 15.7336 30.7942L21.1892 32.8056L23.205 38.2656C23.3592 38.6837 23.6378 39.0444 24.0033 39.2992C24.3688 39.554 24.8037 39.6906 25.2492 39.6906C25.6948 39.6906 26.1297 39.554 26.4952 39.2992C26.8607 39.0444 27.1393 38.6837 27.2934 38.2656L29.3049 32.81L34.7649 30.7942C35.1829 30.6401 35.5437 30.3615 35.7985 29.9959C36.0533 29.6304 36.1899 29.1956 36.1899 28.75C36.1899 28.3044 36.0533 27.8696 35.7985 27.5041C35.5437 27.1385 35.1829 26.8599 34.7649 26.7058ZM27.8327 30.5514C27.6545 30.6171 27.4927 30.7206 27.3585 30.8549C27.2242 30.9891 27.1207 31.1509 27.055 31.3291L25.2492 36.2181L23.4478 31.3291C23.3822 31.1509 23.2786 30.9891 23.1444 30.8549C23.0101 30.7206 22.8483 30.6171 22.6702 30.5514L17.7811 28.75L22.6702 26.9486C22.8483 26.8829 23.0101 26.7794 23.1444 26.6451C23.2786 26.5109 23.3822 26.3491 23.4478 26.1709L25.2492 21.2819L27.0506 26.1709C27.1163 26.3491 27.2198 26.5109 27.3541 26.6451C27.4883 26.7794 27.6501 26.8829 27.8283 26.9486L32.7174 28.75L27.8327 30.5514ZM28.3117 17.375C28.3117 17.0269 28.45 16.6931 28.6962 16.4469C28.9423 16.2008 29.2761 16.0625 29.6242 16.0625H30.9367V14.75C30.9367 14.4019 31.075 14.0681 31.3212 13.8219C31.5673 13.5758 31.9011 13.4375 32.2492 13.4375C32.5973 13.4375 32.9312 13.5758 33.1773 13.8219C33.4234 14.0681 33.5617 14.4019 33.5617 14.75V16.0625H34.8742C35.2223 16.0625 35.5562 16.2008 35.8023 16.4469C36.0484 16.6931 36.1867 17.0269 36.1867 17.375C36.1867 17.7231 36.0484 18.0569 35.8023 18.3031C35.5562 18.5492 35.2223 18.6875 34.8742 18.6875H33.5617V20C33.5617 20.3481 33.4234 20.6819 33.1773 20.9281C32.9312 21.1742 32.5973 21.3125 32.2492 21.3125C31.9011 21.3125 31.5673 21.1742 31.3212 20.9281C31.075 20.6819 30.9367 20.3481 30.9367 20V18.6875H29.6242C29.2761 18.6875 28.9423 18.5492 28.6962 18.3031C28.45 18.0569 28.3117 17.7231 28.3117 17.375ZM40.5617 22.625C40.5617 22.9731 40.4234 23.3069 40.1773 23.5531C39.9312 23.7992 39.5973 23.9375 39.2492 23.9375H38.8117V24.375C38.8117 24.7231 38.6734 25.0569 38.4273 25.3031C38.1812 25.5492 37.8473 25.6875 37.4992 25.6875C37.1511 25.6875 36.8173 25.5492 36.5712 25.3031C36.325 25.0569 36.1867 24.7231 36.1867 24.375V23.9375H35.7492C35.4011 23.9375 35.0673 23.7992 34.8212 23.5531C34.575 23.3069 34.4367 22.9731 34.4367 22.625C34.4367 22.2769 34.575 21.9431 34.8212 21.6969C35.0673 21.4508 35.4011 21.3125 35.7492 21.3125H36.1867V20.875C36.1867 20.5269 36.325 20.1931 36.5712 19.9469C36.8173 19.7008 37.1511 19.5625 37.4992 19.5625C37.8473 19.5625 38.1812 19.7008 38.4273 19.9469C38.6734 20.1931 38.8117 20.5269 38.8117 20.875V21.3125H39.2492C39.5973 21.3125 39.9312 21.4508 40.1773 21.6969C40.4234 21.9431 40.5617 22.2769 40.5617 22.625Z" fill="var(--fill-0, #40CD74)"/>
</g>
</svg>
