<svg preserveAspectRatio="none" width="100%" height="100%" overflow="visible" style="display: block;" viewBox="0 0 35 35" fill="none" xmlns="http://www.w3.org/2000/svg">
<g id="dashboard-reference 1" clip-path="url(#clip0_0_6)">
<path id="Vector" d="M4.375 21.875V24.0625H9.39094L2.1875 31.2659L3.73406 32.8125L10.9375 25.6091V30.625H13.125V21.875H4.375Z" fill="var(--fill-0, #C60087)"/>
<path id="Vector_2" d="M28.4376 22.9688H26.2501V28.4375H28.4376V22.9688Z" fill="var(--fill-0, #C60087)"/>
<path id="Vector_3" d="M24.0626 17.5H21.8751V28.4375H24.0626V17.5Z" fill="var(--fill-0, #C60087)"/>
<path id="Vector_4" d="M19.6875 19.6875H17.5V28.4375H19.6875V19.6875Z" fill="var(--fill-0, #C60087)"/>
<path id="Vector_5" d="M30.625 2.1875H4.375C3.79502 2.18808 3.23895 2.41873 2.82884 2.82884C2.41873 3.23895 2.18808 3.79502 2.1875 4.375V17.5H4.375V14.2188H30.6261L30.6272 30.625H17.5V32.8125H30.625C31.2049 32.8117 31.7609 32.581 32.1709 32.1709C32.581 31.7609 32.8117 31.2049 32.8125 30.625V4.375C32.8118 3.79504 32.5812 3.23903 32.1711 2.82894C31.761 2.41885 31.205 2.18817 30.625 2.1875ZM13.125 12.0312H4.375V4.375H13.125V12.0312ZM15.3125 12.0312V4.375H30.625L30.6258 12.0312H15.3125Z" fill="var(--fill-0, #C60087)"/>
<g id="&#60;Transparent Rectangle&#62;">
</g>
</g>
<defs>
<clipPath id="clip0_0_6">
<rect width="35" height="35" fill="white"/>
</clipPath>
</defs>
</svg>
