<svg preserveAspectRatio="none" width="100%" height="100%" overflow="visible" style="display: block;" viewBox="0 0 65 65" fill="none" xmlns="http://www.w3.org/2000/svg">
<g id="mdi:building">
<rect width="65" height="65" rx="32.5" fill="var(--fill-0, white)"/>
<path id="Vector" d="M42.25 37.375H39V40.625H42.25M42.25 30.875H39V34.125H42.25M45.5 43.875H32.5V40.625H35.75V37.375H32.5V34.125H35.75V30.875H32.5V27.625H45.5M29.25 24.375H26V21.125H29.25M29.25 30.875H26V27.625H29.25M29.25 37.375H26V34.125H29.25M29.25 43.875H26V40.625H29.25M22.75 24.375H19.5V21.125H22.75M22.75 30.875H19.5V27.625H22.75M22.75 37.375H19.5V34.125H22.75M22.75 43.875H19.5V40.625H22.75M32.5 24.375V17.875H16.25V47.125H48.75V24.375H32.5Z" fill="var(--fill-0, #F31921)"/>
</g>
</svg>
