<svg preserveAspectRatio="none" width="100%" height="100%" overflow="visible" style="display: block;" viewBox="0 0 55 55" fill="none" xmlns="http://www.w3.org/2000/svg">
<g id="tdesign:user-time-filled">
<path id="Vector" d="M26.3542 4.58333C23.0113 4.58333 19.8054 5.91127 17.4417 8.27501C15.0779 10.6387 13.75 13.8447 13.75 17.1875C13.75 20.5303 15.0779 23.7363 17.4417 26.1C19.8054 28.4637 23.0113 29.7917 26.3542 29.7917C29.697 29.7917 32.9029 28.4637 35.2667 26.1C37.6304 23.7363 38.9583 20.5303 38.9583 17.1875C38.9583 13.8447 37.6304 10.6387 35.2667 8.27501C32.9029 5.91127 29.697 4.58333 26.3542 4.58333ZM41.25 28.6458C39.5948 28.6458 37.9558 28.9718 36.4266 29.6053C34.8974 30.2387 33.5079 31.1671 32.3375 32.3375C31.1671 33.5079 30.2387 34.8974 29.6053 36.4266C28.9718 37.9558 28.6458 39.5948 28.6458 41.25C28.6458 42.9052 28.9718 44.5442 29.6053 46.0734C30.2387 47.6026 31.1671 48.9921 32.3375 50.1625C33.5079 51.3329 34.8974 52.2613 36.4266 52.8947C37.9558 53.5282 39.5948 53.8542 41.25 53.8542C44.5928 53.8542 47.7988 52.5262 50.1625 50.1625C52.5262 47.7988 53.8542 44.5928 53.8542 41.25C53.8542 37.9072 52.5262 34.7012 50.1625 32.3375C47.7988 29.9738 44.5928 28.6458 41.25 28.6458ZM43.5417 46.7821L38.9583 42.1987V36.0983H43.5417V40.3013L46.7821 43.5417L43.5417 46.7821Z" fill="var(--fill-0, #ED1A24)"/>
<path id="Vector_2" d="M28.0831 32.0834C26.2064 34.7714 25.2023 37.9717 25.207 41.25C25.207 44.6577 26.2704 47.818 28.0831 50.4167H4.58203V45.8334C4.58203 42.1866 6.03069 38.6893 8.60931 36.1107C11.1879 33.532 14.6853 32.0834 18.332 32.0834H28.0831Z" fill="var(--fill-0, #ED1A24)"/>
</g>
</svg>
