<svg preserveAspectRatio="none" width="100%" height="100%" overflow="visible" style="display: block;" viewBox="0 0 44 44" fill="none" xmlns="http://www.w3.org/2000/svg">
<g id="mynaui:telegram">
<path id="Vector" d="M19.2503 25.667L26.096 30.111L31.4677 33.697C31.8637 33.961 32.0617 34.093 32.2395 34.093C32.3163 34.0935 32.3923 34.078 32.4627 34.0474C32.5332 34.0167 32.5964 33.9717 32.6483 33.9152C32.7712 33.7887 32.8078 33.5558 32.8812 33.0902L36.667 9.16699L8.56566 20.8508C7.8415 21.1515 7.48033 21.3037 7.38683 21.4998C7.3463 21.5837 7.32774 21.6765 7.33287 21.7694C7.338 21.8624 7.36666 21.9526 7.41616 22.0315C7.53166 22.2148 7.9075 22.3248 8.66283 22.5467L19.2503 25.667ZM36.667 9.16699L19.2503 25.667M19.2503 25.667L19.5363 33.5503C19.5363 34.1627 19.5363 34.4688 19.6628 34.6228C19.7728 34.7585 19.9378 34.8355 20.1138 34.8337C20.3155 34.8318 20.5538 34.6357 21.0305 34.247L26.096 30.111" stroke="var(--stroke-0, #07802A)" stroke-width="2.5" stroke-linecap="round" stroke-linejoin="round"/>
</g>
</svg>
