<svg preserveAspectRatio="none" width="100%" height="100%" overflow="visible" style="display: block;" viewBox="0 0 39 39" fill="none" xmlns="http://www.w3.org/2000/svg">
<g id="bxs:offer">
<path id="Vector" d="M33.7167 19.4997L35.5107 16.3992C35.7263 16.0262 35.785 15.5828 35.6737 15.1665C35.5625 14.7503 35.2905 14.3952 34.9176 14.1795L31.8138 12.3855V8.81045C31.8138 8.37948 31.6426 7.96615 31.3379 7.66141C31.0331 7.35666 30.6198 7.18545 30.1888 7.18545H26.6155L24.8231 4.08333C24.6077 3.71012 24.2529 3.43773 23.8367 3.32608C23.6305 3.27083 23.4155 3.25675 23.2039 3.28463C22.9922 3.31251 22.7882 3.38181 22.6033 3.48858L19.4996 5.28258L16.3958 3.48695C16.0226 3.27147 15.5791 3.21308 15.1628 3.32462C14.7465 3.43615 14.3916 3.70848 14.1761 4.0817L12.3821 7.18545H8.80871C8.37773 7.18545 7.96441 7.35666 7.65966 7.66141C7.35491 7.96615 7.18371 8.37948 7.18371 8.81045V12.3838L4.07996 14.1778C3.89508 14.2847 3.73307 14.4269 3.60319 14.5964C3.47331 14.7659 3.37811 14.9593 3.32302 15.1656C3.26794 15.3719 3.25405 15.587 3.28216 15.7987C3.31027 16.0104 3.37982 16.2144 3.48683 16.3992L5.28083 19.4997L3.48683 22.6002C3.27231 22.9736 3.21411 23.4166 3.32491 23.8328C3.43572 24.2489 3.70654 24.6043 4.07833 24.8216L7.18208 26.6156V30.189C7.18208 30.6199 7.35329 31.0333 7.65803 31.338C7.96278 31.6428 8.37611 31.814 8.80708 31.814H12.3821L14.1761 34.9177C14.3199 35.1636 14.5254 35.3679 14.7721 35.5103C15.0188 35.6528 15.2984 35.7286 15.5833 35.7302C15.8661 35.7302 16.1472 35.6555 16.3975 35.5108L19.498 33.7168L22.6017 35.5108C22.9747 35.7264 23.4181 35.7851 23.8344 35.6739C24.2506 35.5626 24.6057 35.2907 24.8215 34.9177L26.6138 31.814H30.1872C30.6182 31.814 31.0315 31.6428 31.3363 31.338C31.641 31.0333 31.8122 30.6199 31.8122 30.189V26.6156L34.916 24.8216C35.1008 24.7147 35.2628 24.5725 35.3927 24.403C35.5226 24.2335 35.6178 24.0401 35.6729 23.8338C35.728 23.6275 35.7419 23.4124 35.7138 23.2007C35.6857 22.989 35.6161 22.785 35.5091 22.6002L33.7167 19.4997ZM15.4355 11.3585C16.0821 11.3587 16.7022 11.6158 17.1594 12.0732C17.6165 12.5306 17.8732 13.1509 17.873 13.7976C17.8727 14.4443 17.6156 15.0644 17.1582 15.5215C16.7008 15.9786 16.0805 16.2353 15.4338 16.2351C14.7872 16.2349 14.167 15.9778 13.7099 15.5203C13.2528 15.0629 12.9961 14.4426 12.9963 13.796C12.9965 13.1493 13.2536 12.5292 13.7111 12.072C14.1685 11.6149 14.7888 11.3582 15.4355 11.3585ZM15.923 26.9585L13.323 25.0101L23.073 12.0101L25.673 13.9585L15.923 26.9585ZM23.5605 27.6085C23.2403 27.6083 22.9232 27.5452 22.6274 27.4225C22.3316 27.2999 22.0629 27.1202 21.8365 26.8937C21.6102 26.6672 21.4307 26.3984 21.3083 26.1025C21.1858 25.8066 21.1229 25.4895 21.123 25.1693C21.1231 24.8491 21.1862 24.5321 21.3089 24.2363C21.4315 23.9405 21.6112 23.6718 21.8377 23.4454C22.0642 23.2191 22.3331 23.0396 22.6289 22.9171C22.9248 22.7947 23.2419 22.7317 23.5621 22.7318C24.2088 22.732 24.8289 22.9891 25.286 23.4466C25.7431 23.904 25.9998 24.5243 25.9996 25.171C25.9994 25.8176 25.7423 26.4377 25.2848 26.8949C24.8274 27.352 24.2071 27.6087 23.5605 27.6085Z" fill="var(--fill-0, #F31921)"/>
</g>
</svg>
