<svg preserveAspectRatio="none" width="100%" height="100%" overflow="visible" style="display: block;" viewBox="0 0 35 35" fill="none" xmlns="http://www.w3.org/2000/svg">
<g id="wpf:privacy">
<path id="Vector" d="M17.5006 0C12.3246 0 8.07752 4.24712 8.07752 9.42308V10.7692H6.73137C5.2506 10.7692 4.03906 11.9808 4.03906 13.4615V29.6154C4.03906 31.0962 5.2506 32.3077 6.73137 32.3077H28.2698C29.7506 32.3077 30.9621 31.0962 30.9621 29.6154V13.4615C30.9621 11.9808 29.7506 10.7692 28.2698 10.7692H26.9237V9.42308C26.9237 4.24712 22.6766 0 17.5006 0ZM17.5006 2.69231C21.2093 2.69231 24.2314 5.71442 24.2314 9.42308V10.7692H10.7698V9.42308C10.7698 5.71442 13.7919 2.69231 17.5006 2.69231ZM17.5006 14.8077C21.2698 14.8077 24.2314 17.7692 24.2314 21.5385C24.2314 25.3077 21.2698 28.2692 17.5006 28.2692C13.7314 28.2692 10.7698 25.3077 10.7698 21.5385C10.7698 17.7692 13.7314 14.8077 17.5006 14.8077ZM17.5006 17.5C15.2121 17.5 13.4621 19.25 13.4621 21.5385C13.4621 23.8269 15.2121 25.5769 17.5006 25.5769C19.7891 25.5769 21.5391 23.8269 21.5391 21.5385C21.5391 21.1346 21.4125 20.7227 21.4125 20.3188C21.0087 20.9919 20.3275 21.5385 19.5198 21.5385C18.4429 21.5385 17.5006 20.5962 17.5006 19.5192C17.5006 18.7115 18.0471 18.0304 18.7202 17.6265C18.3164 17.6265 17.9044 17.5 17.5006 17.5Z" fill="var(--fill-0, #0052DE)"/>
</g>
</svg>
