<svg preserveAspectRatio="none" width="100%" height="100%" overflow="visible" style="display: block;" viewBox="0 0 31.965 25.9063" fill="none" xmlns="http://www.w3.org/2000/svg">
<g id="Group">
<path id="Vector" d="M8.1108 20.2813C6.2912 20.2813 4.54613 19.5898 3.25948 18.3591C1.97283 17.1284 1.25 15.4592 1.25 13.7188C1.25 11.9783 1.97283 10.3091 3.25948 9.07836C4.54613 7.84766 6.2912 7.15625 8.1108 7.15625C8.54054 5.24172 9.79774 3.55925 11.6058 2.47896C12.5011 1.94405 13.5047 1.57309 14.5592 1.38725C15.6138 1.2014 16.6987 1.20432 17.752 1.39583C18.8053 1.58734 19.8064 1.9637 20.6981 2.50341C21.5898 3.04312 22.3547 3.73561 22.949 4.54135C23.5433 5.3471 23.9555 6.2503 24.162 7.19941C24.3685 8.14852 24.3653 9.12494 24.1525 10.0729H25.6108C26.9645 10.0729 28.2628 10.6107 29.22 11.5679C30.1772 12.5251 30.715 13.8234 30.715 15.1771C30.715 16.5308 30.1772 17.8291 29.22 18.7863C28.2628 19.7435 26.9645 20.2813 25.6108 20.2813H24.1525" stroke="var(--stroke-0, #FEB422)" stroke-width="2.5" stroke-linecap="round" stroke-linejoin="round"/>
<path id="Vector_2" d="M19.7775 15.9063L15.4025 11.5313L11.0275 15.9063M15.4025 11.5313V24.6563" stroke="var(--stroke-0, #FEB422)" stroke-width="2.5" stroke-linecap="round" stroke-linejoin="round"/>
</g>
</svg>
