<svg preserveAspectRatio="none" width="100%" height="100%" overflow="visible" style="display: block;" viewBox="0 0 31 31" fill="none" xmlns="http://www.w3.org/2000/svg">
<g id="Group">
<path id="Vector" fill-rule="evenodd" clip-rule="evenodd" d="M21.1374 11.2726C21.1374 12.7674 20.5435 14.201 19.4865 15.2581C18.4295 16.3151 16.9958 16.9089 15.501 16.9089C14.0061 16.9089 12.5725 16.3151 11.5155 15.2581C10.4585 14.201 9.86462 12.7674 9.86462 11.2726C9.86462 9.77769 10.4585 8.34406 11.5155 7.28704C12.5725 6.23002 14.0061 5.63619 15.501 5.63619C16.9958 5.63619 18.4295 6.23002 19.4865 7.28704C20.5435 8.34406 21.1374 9.77769 21.1374 11.2726ZM18.3192 11.2726C18.3192 12.02 18.0223 12.7368 17.4937 13.2653C16.9652 13.7938 16.2484 14.0907 15.501 14.0907C14.7536 14.0907 14.0367 13.7938 13.5082 13.2653C12.9797 12.7368 12.6828 12.02 12.6828 11.2726C12.6828 10.5251 12.9797 9.80831 13.5082 9.2798C14.0367 8.75128 14.7536 8.45437 15.501 8.45437C16.2484 8.45437 16.9652 8.75128 17.4937 9.2798C18.0223 9.80831 18.3192 10.5251 18.3192 11.2726Z" fill="var(--fill-0, black)"/>
<path id="Vector_2" fill-rule="evenodd" clip-rule="evenodd" d="M15.5 0C6.93977 0 0 6.93977 0 15.5C0 24.0602 6.93977 31 15.5 31C24.0602 31 31 24.0602 31 15.5C31 6.93977 24.0602 0 15.5 0ZM2.81818 15.5C2.81818 18.445 3.82286 21.1561 5.50673 23.3092C6.68958 21.7565 8.21522 20.4982 9.96458 19.6325C11.7139 18.7667 13.6397 18.3169 15.5916 18.3182C17.5184 18.3159 19.4202 18.7537 21.152 19.5982C22.8839 20.4426 24.4001 21.6714 25.5849 23.1908C26.8058 21.5895 27.6278 19.7205 27.983 17.7385C28.3382 15.7564 28.2162 13.7183 27.6273 11.7927C27.0384 9.86707 25.9994 8.10939 24.5964 6.66505C23.1933 5.22072 21.4664 4.13126 19.5587 3.48681C17.651 2.84236 15.6172 2.66145 13.6257 2.95905C11.6342 3.25665 9.74216 4.02421 8.10617 5.19821C6.47019 6.37221 5.13728 7.91891 4.21773 9.71032C3.29818 11.5017 2.81844 13.4864 2.81818 15.5ZM15.5 28.1818C12.5887 28.1865 9.7652 27.185 7.50764 25.3467C8.41623 24.0456 9.62577 22.9833 11.0333 22.2502C12.4408 21.5171 14.0046 21.135 15.5916 21.1364C17.1587 21.135 18.7036 21.5076 20.0978 22.2232C21.4921 22.9388 22.6954 23.9768 23.6079 25.2509C21.3329 27.149 18.4628 28.1865 15.5 28.1818Z" fill="var(--fill-0, black)"/>
</g>
</svg>
