<svg preserveAspectRatio="none" width="100%" height="100%" overflow="visible" style="display: block;" viewBox="0 0 48.9844 53.281" fill="none" xmlns="http://www.w3.org/2000/svg">
<g id="Group">
<path id="Vector" d="M16.3281 29.2185H12.8906C11.4668 29.2185 10.3125 30.3728 10.3125 31.7966V46.406C10.3125 47.8299 11.4668 48.9841 12.8906 48.9841H16.3281C17.752 48.9841 18.9062 47.8299 18.9062 46.406V31.7966C18.9062 30.3728 17.752 29.2185 16.3281 29.2185Z" fill="var(--fill-0, #ED1A24)"/>
<path id="Vector_2" d="M27.5 23.2029H24.0625C22.6386 23.2029 21.4844 24.3572 21.4844 25.781V46.406C21.4844 47.8299 22.6386 48.9841 24.0625 48.9841H27.5C28.9239 48.9841 30.0781 47.8299 30.0781 46.406V25.781C30.0781 24.3572 28.9239 23.2029 27.5 23.2029Z" fill="var(--fill-0, #ED1A24)"/>
<path id="Vector_3" d="M38.6719 17.1873H35.2344C33.8105 17.1873 32.6562 18.3415 32.6562 19.7654V46.406C32.6562 47.8299 33.8105 48.9841 35.2344 48.9841H38.6719C40.0957 48.9841 41.25 47.8299 41.25 46.406V19.7654C41.25 18.3415 40.0957 17.1873 38.6719 17.1873Z" fill="var(--fill-0, #ED1A24)"/>
<path id="Vector_4" d="M6.43359 25.1403C6.43359 25.1403 23.1723 20.5122 32.2762 9.24609" stroke="var(--stroke-0, #ED1A24)" stroke-width="5" stroke-linecap="round"/>
<path id="Vector_5" fill-rule="evenodd" clip-rule="evenodd" d="M37.8296 3.64602L34.7913 13.9764L27.4992 6.68437L37.8296 3.64602Z" fill="var(--fill-0, #ED1A24)"/>
<path id="Vector_6" d="M48.9844 50.7029H0V53.281H48.9844V50.7029Z" fill="var(--fill-0, #ED1A24)"/>
</g>
</svg>
